<svg width="400" height="400" viewBox="0 0 400 400" fill="none" xmlns="http://www.w3.org/2000/svg">
<path fill-rule="evenodd" clip-rule="evenodd" d="M400 200C400 221.914 396.476 243.005 389.963 262.736C343.235 227.715 313 171.888 313 109C313 85.9792 317.051 63.9047 324.48 43.4506C370.501 80.0927 400 136.601 400 200ZM305 109C305 175.403 337.361 234.249 387.173 270.624C362.448 336.121 304.331 385.231 233.584 397.192C277.248 360.505 305 305.493 305 244C305 133.543 215.457 44 105 44C93.5553 44 82.3351 44.9613 71.4157 46.8075C106.182 17.5952 151.036 0 200 0C244.053 0 284.78 14.2432 317.827 38.3757C309.536 60.3359 305 84.1382 305 109ZM218.064 399.195C212.114 399.728 206.089 400 200 400C89.5431 400 0 310.457 0 200C0 144.141 22.8995 93.6312 59.8229 57.3452C74.3108 53.8511 89.4392 52 105 52C211.039 52 297 137.961 297 244C297 307.769 265.912 364.277 218.064 399.195Z" fill="#D9D9D9"/>
<path fill-rule="evenodd" clip-rule="evenodd" d="M400 200C400 221.914 396.476 243.005 389.963 262.736C343.235 227.715 313 171.888 313 109C313 85.9792 317.051 63.9047 324.48 43.4506C370.501 80.0927 400 136.601 400 200ZM305 109C305 175.403 337.361 234.249 387.173 270.624C362.448 336.121 304.331 385.231 233.584 397.192C277.248 360.505 305 305.493 305 244C305 133.543 215.457 44 105 44C93.5553 44 82.3351 44.9613 71.4157 46.8075C106.182 17.5952 151.036 0 200 0C244.053 0 284.78 14.2432 317.827 38.3757C309.536 60.3359 305 84.1382 305 109ZM218.064 399.195C212.114 399.728 206.089 400 200 400C89.5431 400 0 310.457 0 200C0 144.141 22.8995 93.6312 59.8229 57.3452C74.3108 53.8511 89.4392 52 105 52C211.039 52 297 137.961 297 244C297 307.769 265.912 364.277 218.064 399.195Z" fill="url(#paint0_linear_10_10)"/>
<defs>
<linearGradient id="paint0_linear_10_10" x1="0" y1="200" x2="400" y2="200" gradientUnits="userSpaceOnUse">
<stop stop-color="#E96443"/>
<stop offset="1" stop-color="#904E95"/>
</linearGradient>
</defs>
</svg>
