<svg width="34" height="36" viewBox="0 0 34 36" fill="none" xmlns="http://www.w3.org/2000/svg">
<path fill-rule="evenodd" clip-rule="evenodd" d="M34 18.0126C34 19.4308 33.8361 20.8095 33.5268 22.1298C30.1188 19.2979 27.925 14.9545 27.925 10.0501C27.925 8.37859 28.1798 6.7722 28.6507 5.26861C31.9439 8.46015 34 12.9892 34 18.0126ZM25.925 10.0501C25.925 15.8604 28.6757 21.0094 32.9097 24.1923C30.8081 29.9232 25.8681 34.2203 19.8547 35.267C23.566 32.0568 25.925 27.2433 25.925 21.8626C25.925 12.1977 18.3138 4.36264 8.92499 4.36264C7.95219 4.36264 6.99848 4.44675 6.07033 4.6083C9.02549 2.05221 12.8381 0.512634 17 0.512634C20.7445 0.512634 24.2063 1.75891 27.0153 3.8705C26.3106 5.79202 25.925 7.87472 25.925 10.0501ZM16.0787 35.4874C7.11824 34.9947 0 27.3594 0 18.0126C0 14.0332 1.29032 10.364 3.46376 7.42412C5.15936 6.73837 7.00233 6.36264 8.92499 6.36264C17.155 6.36264 23.925 13.2472 23.925 21.8626C23.925 27.774 20.7378 32.8705 16.0787 35.4874Z" fill="#D9D9D9"/>
</svg>
