<svg viewBox="0 0 25 25" fill="none" xmlns="http://www.w3.org/2000/svg">
<path d="M8.35486 19.7452C8.35486 19.8429 8.24255 19.921 8.10095 19.921C7.93982 19.9356 7.82751 19.8575 7.82751 19.7452C7.82751 19.6476 7.93982 19.5694 8.08142 19.5694C8.22791 19.5548 8.35486 19.6329 8.35486 19.7452ZM6.8363 19.5255C6.80212 19.6231 6.89978 19.7354 7.04626 19.7647C7.17322 19.8136 7.3197 19.7647 7.349 19.6671C7.3783 19.5694 7.28552 19.4571 7.13904 19.4132C7.01208 19.379 6.87048 19.4278 6.8363 19.5255ZM8.99451 19.4425C8.85291 19.4767 8.75525 19.5694 8.7699 19.6817C8.78455 19.7794 8.9115 19.8429 9.05798 19.8087C9.19959 19.7745 9.29724 19.6817 9.28259 19.5841C9.26794 19.4913 9.13611 19.4278 8.99451 19.4425ZM12.2074 0.731537C5.43494 0.731537 0.254272 5.87314 0.254272 12.6456C0.254272 18.0606 3.66248 22.6944 8.53064 24.3253C9.15564 24.4376 9.37537 24.0518 9.37537 23.7345C9.37537 23.4317 9.36072 21.7618 9.36072 20.7364C9.36072 20.7364 5.94275 21.4688 5.22498 19.2813C5.22498 19.2813 4.66833 17.8604 3.86755 17.4942C3.86755 17.4942 2.74939 16.7276 3.94568 16.7423C3.94568 16.7423 5.1615 16.8399 5.83044 18.002C6.89978 19.8868 8.69177 19.3448 9.39001 19.0226C9.50232 18.2413 9.8197 17.6993 10.1713 17.377C7.44177 17.0743 4.68787 16.6788 4.68787 11.9815C4.68787 10.6388 5.05896 9.96494 5.84021 9.10556C5.71326 8.78818 5.29822 7.47958 5.96716 5.79013C6.98767 5.47275 9.3363 7.10849 9.3363 7.10849C10.3129 6.83505 11.3627 6.69345 12.4027 6.69345C13.4427 6.69345 14.4926 6.83505 15.4691 7.10849C15.4691 7.10849 17.8177 5.46786 18.8383 5.79013C19.5072 7.48447 19.0922 8.78818 18.9652 9.10556C19.7465 9.96982 20.225 10.6436 20.225 11.9815C20.225 16.6935 17.349 17.0694 14.6195 17.377C15.0687 17.7628 15.4496 18.4952 15.4496 19.6427C15.4496 21.2882 15.4349 23.3243 15.4349 23.7247C15.4349 24.0421 15.6595 24.4278 16.2797 24.3155C21.1625 22.6944 24.473 18.0606 24.473 12.6456C24.473 5.87314 18.9799 0.731537 12.2074 0.731537ZM5.00037 17.5724C4.93689 17.6212 4.95154 17.7335 5.03455 17.8263C5.11267 17.9044 5.22498 17.9386 5.28845 17.8751C5.35193 17.8263 5.33728 17.714 5.25427 17.6212C5.17615 17.5431 5.06384 17.5089 5.00037 17.5724ZM4.47302 17.1768C4.43884 17.2403 4.48767 17.3185 4.58533 17.3673C4.66345 17.4161 4.76111 17.4015 4.79529 17.3331C4.82947 17.2696 4.78064 17.1915 4.68298 17.1427C4.58533 17.1134 4.5072 17.128 4.47302 17.1768ZM6.05505 18.9151C5.97693 18.9786 6.00623 19.1251 6.11853 19.2179C6.23083 19.3302 6.37244 19.3448 6.43591 19.2667C6.49939 19.2032 6.47009 19.0567 6.37244 18.964C6.26501 18.8517 6.11853 18.837 6.05505 18.9151ZM5.49841 18.1974C5.42029 18.2462 5.42029 18.3731 5.49841 18.4854C5.57654 18.5977 5.70837 18.6466 5.77185 18.5977C5.84998 18.5343 5.84998 18.4073 5.77185 18.295C5.70349 18.1827 5.57654 18.1339 5.49841 18.1974Z" fill="white"/>
</svg>
